<mxfile host="app.diagrams.net" modified="2021-04-09T04:56:53.826Z" agent="5.0 (Windows NT 10.0; Win64; x64) AppleWebKit/537.36 (KHTML, like Gecko) Chrome/89.0.4389.114 Safari/537.36" etag="rnzZko2IGqY5JNQRmc65" version="14.5.8" type="github">
  <diagram id="ePGKmJ1W3RTEx78IzwG0" name="第 1 页">
    <mxGraphModel dx="1278" dy="492" grid="1" gridSize="10" guides="1" tooltips="1" connect="1" arrows="1" fold="1" page="1" pageScale="1" pageWidth="827" pageHeight="1169" math="0" shadow="0">
      <root>
        <mxCell id="0" />
        <mxCell id="1" parent="0" />
        <mxCell id="J2yKbZTILe6cAZUhtV2m-1" value="用户" style="shape=umlActor;verticalLabelPosition=bottom;verticalAlign=top;html=1;" vertex="1" parent="1">
          <mxGeometry x="60" y="410" width="50" height="70" as="geometry" />
        </mxCell>
        <mxCell id="J2yKbZTILe6cAZUhtV2m-10" style="edgeStyle=none;rounded=0;orthogonalLoop=1;jettySize=auto;html=1;entryX=0;entryY=0.5;entryDx=0;entryDy=0;" edge="1" parent="1" source="J2yKbZTILe6cAZUhtV2m-2" target="J2yKbZTILe6cAZUhtV2m-4">
          <mxGeometry relative="1" as="geometry" />
        </mxCell>
        <mxCell id="J2yKbZTILe6cAZUhtV2m-11" style="edgeStyle=none;rounded=0;orthogonalLoop=1;jettySize=auto;html=1;entryX=0;entryY=0.5;entryDx=0;entryDy=0;" edge="1" parent="1" source="J2yKbZTILe6cAZUhtV2m-2" target="J2yKbZTILe6cAZUhtV2m-5">
          <mxGeometry relative="1" as="geometry" />
        </mxCell>
        <mxCell id="J2yKbZTILe6cAZUhtV2m-12" style="edgeStyle=none;rounded=0;orthogonalLoop=1;jettySize=auto;html=1;entryX=0;entryY=0.5;entryDx=0;entryDy=0;" edge="1" parent="1" source="J2yKbZTILe6cAZUhtV2m-2" target="J2yKbZTILe6cAZUhtV2m-9">
          <mxGeometry relative="1" as="geometry" />
        </mxCell>
        <mxCell id="J2yKbZTILe6cAZUhtV2m-2" value="我的小组计划管理" style="ellipse;whiteSpace=wrap;html=1;" vertex="1" parent="1">
          <mxGeometry x="160" y="400" width="110" height="60" as="geometry" />
        </mxCell>
        <mxCell id="J2yKbZTILe6cAZUhtV2m-3" style="rounded=0;orthogonalLoop=1;jettySize=auto;html=1;exitX=1;exitY=0.3333333333333333;exitDx=0;exitDy=0;exitPerimeter=0;entryX=0;entryY=0.5;entryDx=0;entryDy=0;" edge="1" parent="1" source="J2yKbZTILe6cAZUhtV2m-1" target="J2yKbZTILe6cAZUhtV2m-2">
          <mxGeometry x="104" y="155" as="geometry" />
        </mxCell>
        <mxCell id="J2yKbZTILe6cAZUhtV2m-13" style="edgeStyle=none;rounded=0;orthogonalLoop=1;jettySize=auto;html=1;entryX=0;entryY=0.5;entryDx=0;entryDy=0;" edge="1" parent="1" source="J2yKbZTILe6cAZUhtV2m-4" target="J2yKbZTILe6cAZUhtV2m-7">
          <mxGeometry relative="1" as="geometry" />
        </mxCell>
        <mxCell id="J2yKbZTILe6cAZUhtV2m-14" style="edgeStyle=none;rounded=0;orthogonalLoop=1;jettySize=auto;html=1;entryX=0;entryY=0.5;entryDx=0;entryDy=0;" edge="1" parent="1" source="J2yKbZTILe6cAZUhtV2m-4" target="J2yKbZTILe6cAZUhtV2m-8">
          <mxGeometry relative="1" as="geometry" />
        </mxCell>
        <mxCell id="J2yKbZTILe6cAZUhtV2m-4" value="创建小组计划" style="ellipse;whiteSpace=wrap;html=1;" vertex="1" parent="1">
          <mxGeometry x="330" y="280" width="110" height="60" as="geometry" />
        </mxCell>
        <mxCell id="J2yKbZTILe6cAZUhtV2m-5" value="退出小组计划" style="ellipse;whiteSpace=wrap;html=1;" vertex="1" parent="1">
          <mxGeometry x="330" y="370" width="110" height="60" as="geometry" />
        </mxCell>
        <mxCell id="J2yKbZTILe6cAZUhtV2m-7" value="创建需缴纳保证金&lt;br&gt;的小组计划" style="ellipse;whiteSpace=wrap;html=1;" vertex="1" parent="1">
          <mxGeometry x="490" y="160" width="160" height="70" as="geometry" />
        </mxCell>
        <mxCell id="J2yKbZTILe6cAZUhtV2m-8" value="创建不需缴纳保证金&lt;br&gt;的小组计划" style="ellipse;whiteSpace=wrap;html=1;" vertex="1" parent="1">
          <mxGeometry x="490" y="260" width="160" height="70" as="geometry" />
        </mxCell>
        <mxCell id="J2yKbZTILe6cAZUhtV2m-9" value="查找我的小组计划" style="ellipse;whiteSpace=wrap;html=1;" vertex="1" parent="1">
          <mxGeometry x="330" y="470" width="110" height="60" as="geometry" />
        </mxCell>
        <mxCell id="J2yKbZTILe6cAZUhtV2m-15" value="&lt;font style=&quot;font-size: 36px&quot;&gt;我的小组计划管理&lt;/font&gt;" style="text;html=1;strokeColor=none;fillColor=none;align=center;verticalAlign=middle;whiteSpace=wrap;rounded=0;" vertex="1" parent="1">
          <mxGeometry x="190" y="80" width="340" height="40" as="geometry" />
        </mxCell>
      </root>
    </mxGraphModel>
  </diagram>
</mxfile>
